<svg xmlns="http://www.w3.org/2000/svg" height="267" width="1568"><path d="M780 111c-2-11-13-20-26-20-23 0-32 20-32 40s9 40 32 40c16 0 25-11 27-27h25c-3 30-23 49-52 49-37 0-58-27-58-62s21-62 58-62c26 0 48 15 51 42h-25m41-39h89v22h-63v25h57v20h-57v29h64v22h-90V72m132 53h29c12 0 18-5 18-17 0-11-6-16-18-16h-29zm-26-53h64c21 0 35 14 35 32 0 14-6 25-19 30 13 4 17 16 17 28 1 8 1 21 5 28h-26c-3-7-3-19-4-28-2-13-6-18-20-18h-26v46h-26V72m143 22h-35V72h97v22h-36v96h-26V94m73-22h26v118h-26V72m43 0h84v22h-57v27h49v20h-49v49h-27V72m101 0h26v118h-26V72m43 0h89v22h-63v25h57v20h-57v29h64v22h-90V72m132 96h23c15 0 30-9 30-35 0-24-9-39-34-39h-19zm-26-96h51c31 0 54 19 54 58 0 35-18 60-54 60h-51V72" fill="#67696e"/><path d="M444 206l102 35 103-35V57L546 24 444 57v149" fill="#f79310"/><path d="M611 107l-79 78-50-51 22-22 29 29 56-56 22 22" fill="#fff"/><path d="M93 134c-5 5-16 5-25 7s-18 5-18 18c0 12 9 15 19 15 23 0 24-21 24-28zm-70-25c2-31 27-41 52-41 22 0 48 6 48 35v63c0 11 1 22 4 27H96l-2-12a47 47 0 01-37 15c-20 0-37-11-37-36 0-28 19-34 37-37 19-3 36-2 36-16s-9-16-20-16-18 5-19 18H23m237 84h-31l-19-81h-1l-19 81h-31L125 72h31l21 82 18-82h29l19 82 20-82h31l-34 121m61-39c0 14 11 20 23 20 8 0 19-4 19-15s-12-14-34-19c-17-5-34-11-34-33 0-31 24-39 47-39 24 0 46 9 48 39h-28c-1-13-10-16-21-16-6 0-16 1-16 11 0 12 16 14 34 18 17 4 34 11 34 34 0 32-25 42-50 42s-50-10-51-42h29" fill="#3e3c40"/></svg>